<svg width="32" height="32" viewBox="0 0 22 22" fill="none" xmlns="http://www.w3.org/2000/svg">
  <rect width="22" height="22" rx="4" fill="#102A2A"/>
  <path
    fill-rule="evenodd"
    clip-rule="evenodd"
    d="M1.5 21H3.67144H4.40596C4.39895 21 4.39315 20.9945 4.39315 20.9877V12.8777C4.39315 12.2945 4.74273 11.7653 5.28683 11.5243L7.18588 10.6835C7.72998 10.4427 8.07956 9.91333 8.07956 9.33033V7.30867V1.01233C8.07956 1.0055 8.0852 1 8.0922 1H5.18625C4.76579 1 4.42492 1.33267 4.42492 1.743V7.30867V9.33033C4.42492 9.91333 4.0755 10.4427 3.53123 10.6835L1.63235 11.5243C1.08808 11.7653 0.738671 12.2945 0.738671 12.8777V20.257C0.738671 20.6673 1.07954 21 1.5 21ZM7.57781 21H10.5108H11.2451C11.2381 21 11.2325 20.9945 11.2325 20.9877V12.8777C11.2325 12.2945 11.5819 11.7653 12.126 11.5243L14.0251 10.6835C14.5692 10.4427 14.9187 9.91333 14.9187 9.33033V7.30867V1.01233C14.9187 1.0055 14.9244 1 14.9314 1H11.2641V7.30867V9.33033C11.2641 9.91333 10.9147 10.4427 10.3706 10.6835L8.4715 11.5243C7.9274 11.7653 7.57781 12.2945 7.57781 12.8777V21ZM15.9004 21H14.4245C14.4315 21 14.4371 20.9945 14.4371 20.9877V14.6913V12.6697C14.4371 12.0867 14.7866 11.5573 15.3308 11.3165L17.2297 10.4757C17.774 10.2347 18.1234 9.7055 18.1234 9.12234V1.01233C18.1234 1.0055 18.1178 1 18.1108 1H18.8451H19.5314H19.7569H21.0165C21.437 1 21.7779 1.33267 21.7779 1.743V9.12234C21.7779 9.7055 21.4284 10.2347 20.8843 10.4757L18.9853 11.3165C18.4412 11.5573 18.0916 12.0867 18.0916 12.6697V14.6913V20.257C18.0916 20.6673 17.7507 21 17.3303 21H16.1258H15.9004Z"
    fill="url(#heima-gradient)"
  />
  <defs>
    <linearGradient id="heima-gradient" x1="4.70874" y1="1.75" x2="16.9796" y2="20.0709" gradientUnits="userSpaceOnUse">
      <stop stop-color="#FEE45D" />
      <stop offset="0.145" stop-color="#FEE45D" />
      <stop offset="0.775" stop-color="#AEFEC3" />
    </linearGradient>
  </defs>
</svg>
