<svg width="94" height="20" viewBox="0 0 94 20" fill="none" xmlns="http://www.w3.org/2000/svg">
<path fill-rule="evenodd" clip-rule="evenodd" d="M0.761329 20H2.93277H3.66729C3.66028 20 3.65448 19.9945 3.65448 19.9877V11.8777C3.65448 11.2945 4.00406 10.7653 4.54816 10.5243L6.44721 9.6835C6.99131 9.44267 7.34089 8.91333 7.34089 8.33033V6.30867V0.0123291C7.34089 0.00549577 7.34653 0 7.35353 0H4.44758C4.02712 0 3.68625 0.332668 3.68625 0.743001V6.30867V8.33033C3.68625 8.91333 3.33683 9.44267 2.79256 9.6835L0.893676 10.5243C0.349407 10.7653 0 11.2945 0 11.8777V19.257C0 19.6673 0.340874 20 0.761329 20ZM6.83914 20H9.77209H10.5064C10.4994 20 10.4938 19.9945 10.4938 19.9877V11.8777C10.4938 11.2945 10.8432 10.7653 11.3873 10.5243L13.2864 9.6835C13.8305 9.44267 14.18 8.91333 14.18 8.33033V6.30867V0.0123291C14.18 0.00549577 14.1857 0 14.1927 0H10.5254V6.30867V8.33033C10.5254 8.91333 10.176 9.44267 9.63188 9.6835L7.73283 10.5243C7.18873 10.7653 6.83914 11.2945 6.83914 11.8777V20ZM15.1617 20H13.6858C13.6928 20 13.6984 19.9945 13.6984 19.9877V13.6913V11.6697C13.6984 11.0867 14.0479 10.5573 14.5921 10.3165L16.491 9.47567C17.0353 9.23467 17.3847 8.7055 17.3847 8.12234V0.0123291C17.3847 0.00549577 17.3791 0 17.3721 0H18.1064H18.7927H19.0182H20.2778C20.6983 0 21.0392 0.332668 21.0392 0.743001V8.12234C21.0392 8.7055 20.6897 9.23467 20.1456 9.47567L18.2466 10.3165C17.7025 10.5573 17.3529 11.0867 17.3529 11.6697V13.6913V19.257C17.3529 19.6673 17.012 20 16.5916 20H15.3871H15.1617Z" fill="white"/>
<path fill-rule="evenodd" clip-rule="evenodd" d="M0.761329 20H2.93277H3.66729C3.66028 20 3.65448 19.9945 3.65448 19.9877V11.8777C3.65448 11.2945 4.00406 10.7653 4.54816 10.5243L6.44721 9.6835C6.99131 9.44267 7.34089 8.91333 7.34089 8.33033V6.30867V0.0123291C7.34089 0.00549577 7.34653 0 7.35353 0H4.44758C4.02712 0 3.68625 0.332668 3.68625 0.743001V6.30867V8.33033C3.68625 8.91333 3.33683 9.44267 2.79256 9.6835L0.893676 10.5243C0.349407 10.7653 0 11.2945 0 11.8777V19.257C0 19.6673 0.340874 20 0.761329 20ZM6.83914 20H9.77209H10.5064C10.4994 20 10.4938 19.9945 10.4938 19.9877V11.8777C10.4938 11.2945 10.8432 10.7653 11.3873 10.5243L13.2864 9.6835C13.8305 9.44267 14.18 8.91333 14.18 8.33033V6.30867V0.0123291C14.18 0.00549577 14.1857 0 14.1927 0H10.5254V6.30867V8.33033C10.5254 8.91333 10.176 9.44267 9.63188 9.6835L7.73283 10.5243C7.18873 10.7653 6.83914 11.2945 6.83914 11.8777V20ZM15.1617 20H13.6858C13.6928 20 13.6984 19.9945 13.6984 19.9877V13.6913V11.6697C13.6984 11.0867 14.0479 10.5573 14.5921 10.3165L16.491 9.47567C17.0353 9.23467 17.3847 8.7055 17.3847 8.12234V0.0123291C17.3847 0.00549577 17.3791 0 17.3721 0H18.1064H18.7927H19.0182H20.2778C20.6983 0 21.0392 0.332668 21.0392 0.743001V8.12234C21.0392 8.7055 20.6897 9.23467 20.1456 9.47567L18.2466 10.3165C17.7025 10.5573 17.3529 11.0867 17.3529 11.6697V13.6913V19.257C17.3529 19.6673 17.012 20 16.5916 20H15.3871H15.1617Z" fill="url(#paint0_linear_98_6152)"/>
<path d="M46.9634 5.86872C48.0497 5.86872 49.0192 6.09712 49.8716 6.55329C50.7379 7.00945 51.405 7.66013 51.8726 8.50544C52.3537 9.33734 52.5942 10.2967 52.5942 11.3834C52.5942 11.7859 52.5672 12.1482 52.5122 12.4703H44.1587C44.2273 13.2753 44.5162 13.9065 45.0249 14.3629C45.5336 14.819 46.1594 15.0464 46.9019 15.0465C47.9743 15.0465 48.7372 14.597 49.1909 13.6978H52.3052C51.9752 14.7713 51.3427 15.6572 50.4077 16.355C49.4729 17.0393 48.3246 17.3814 46.9634 17.3814C45.8635 17.3814 44.8734 17.1469 43.9937 16.6773C43.1274 16.1943 42.4466 15.5162 41.9517 14.6441C41.4705 13.7719 41.23 12.7651 41.23 11.6246C41.23 10.4708 41.4705 9.45757 41.9517 8.58551C42.4329 7.71322 43.107 7.04247 43.9731 6.57282C44.8392 6.10321 45.8361 5.86876 46.9634 5.86872ZM86.5298 5.86872C87.3818 5.86872 88.1228 6.03628 88.7563 6.37165C89.4018 6.7071 89.9183 7.1295 90.3042 7.63923V6.04938H93.2104V17.2007H90.3042V15.5699C89.9319 16.0932 89.4156 16.5295 88.7563 16.8785C88.1092 17.2139 87.3611 17.3814 86.5073 17.3814C85.5461 17.3814 84.667 17.1398 83.8696 16.6568C83.0859 16.1739 82.4589 15.4965 81.9927 14.6246C81.5384 13.7389 81.311 12.725 81.311 11.5845C81.3111 10.4575 81.5384 9.4576 81.9927 8.58551C82.4589 7.71338 83.0859 7.04241 83.8696 6.57282C84.667 6.10334 85.5532 5.86873 86.5298 5.86872ZM74.6313 5.8902C76.0333 5.8902 77.1603 6.31354 78.0142 7.15876C78.8799 7.9907 79.312 9.15786 79.312 10.6607V17.2027H76.4263V11.0435C76.4263 10.1714 76.1989 9.50669 75.7446 9.05036C75.2911 8.58096 74.6726 8.34631 73.8892 8.34626C73.1056 8.34626 72.4798 8.58085 72.0122 9.05036C71.5586 9.50669 71.3315 10.1714 71.3315 11.0435V17.2027H68.4438V11.0435C68.4438 10.1714 68.2169 9.50669 67.7632 9.05036C67.3095 8.58098 66.691 8.34635 65.9077 8.34626C65.1105 8.34626 64.4776 8.58091 64.0103 9.05036C63.5565 9.50669 63.3296 10.1714 63.3296 11.0435V17.2027H60.4419V6.05133H63.3296V7.39997C63.7008 6.93046 64.1752 6.56179 64.7524 6.29352C65.3437 6.02519 65.9897 5.89021 66.6909 5.8902C67.5848 5.8902 68.3823 6.07899 69.0835 6.45465C69.7846 6.81693 70.3275 7.3399 70.7124 8.02399C71.0837 7.37999 71.6206 6.86335 72.3218 6.47419C73.0367 6.08513 73.8065 5.89022 74.6313 5.8902ZM30.0767 8.92829H36.2427V3.15094H39.1304V17.2007H36.2427V11.2222H30.0767V17.2007H27.189V3.15094H30.0767V8.92829ZM57.5894 17.2007H54.7017V6.05036H57.5894V17.2007ZM87.271 8.3443C86.7348 8.34431 86.2392 8.47213 85.7866 8.72712C85.3326 8.98211 84.9619 9.35774 84.6733 9.85407C84.3985 10.3369 84.2603 10.9138 84.2603 11.5845C84.2603 12.2553 84.3984 12.8462 84.6733 13.356C84.9619 13.8524 85.3325 14.2352 85.7866 14.5035C86.2545 14.7718 86.7484 14.9058 87.271 14.9058C87.807 14.9058 88.3091 14.7788 88.7769 14.524C89.2448 14.2557 89.6162 13.8791 89.8911 13.3961C90.1659 12.8996 90.3042 12.3089 90.3042 11.6246C90.3041 10.9404 90.166 10.3565 89.8911 9.8736C89.6162 9.37719 89.2447 9.00145 88.7769 8.74665C88.309 8.47831 87.8071 8.3443 87.271 8.3443ZM46.8813 8.18317C46.1663 8.18317 45.5608 8.3982 45.0659 8.8277C44.5849 9.24368 44.2891 9.8274 44.1792 10.5787H49.604C49.5903 9.85401 49.3219 9.27657 48.7993 8.84723C48.277 8.40448 47.6375 8.18319 46.8813 8.18317ZM56.1665 1.42048C56.6751 1.42055 57.0945 1.58195 57.4243 1.90387C57.768 2.21249 57.9399 2.60131 57.9399 3.07087C57.9399 3.54046 57.768 3.93623 57.4243 4.25837C57.0945 4.56679 56.6751 4.72118 56.1665 4.72126C55.6578 4.72126 55.231 4.56687 54.8872 4.25837C54.5574 3.93624 54.3921 3.54043 54.3921 3.07087C54.3921 2.60134 54.5574 2.21249 54.8872 1.90387C55.231 1.58187 55.6578 1.42048 56.1665 1.42048Z" fill="white"/>
<defs>
<linearGradient id="paint0_linear_98_6152" x1="3.97007" y1="0.75" x2="16.2409" y2="19.0709" gradientUnits="userSpaceOnUse">
<stop stop-color="#FEE45D"/>
<stop offset="0.145" stop-color="#FEE45D"/>
<stop offset="0.775" stop-color="#AEFEC3"/>
</linearGradient>
</defs>
</svg>
